solid OpenSCAD_Model
  facet normal 0 -0.894437 -0.447194
    outer loop
      vertex -5.68159 -22.8753 -38.9708
      vertex 5.68159 -22.8753 -38.9708
      vertex 0 -24.7213 -35.2786
    endloop
  endfacet
  facet normal 1.80904e-06 -0.894426 -0.447216
    outer loop
      vertex -9.80952 -13.5016 -57.7181
      vertex -5.68159 -22.8753 -38.9708
      vertex -14.5308 -20 -44.7214
    endloop
  endfacet
  facet normal 0 -0.894426 -0.447216
    outer loop
      vertex -5.68159 -22.8753 -38.9708
      vertex -9.80952 -13.5016 -57.7181
      vertex 5.68159 -22.8753 -38.9708
    endloop
  endfacet
  facet normal -0 -0.894426 -0.447216
    outer loop
      vertex 9.80952 -13.5016 -57.7181
      vertex 5.68159 -22.8753 -38.9708
      vertex -9.80952 -13.5016 -57.7181
    endloop
  endfacet
  facet normal -1.80904e-06 -0.894426 -0.447216
    outer loop
      vertex 5.68159 -22.8753 -38.9708
      vertex 9.80952 -13.5016 -57.7181
      vertex 14.5308 -20 -44.7214
    endloop
  endfacet
  facet normal 0 -0.894435 -0.447198
    outer loop
      vertex -8.98058 -12.3607 -60
      vertex 9.80952 -13.5016 -57.7181
      vertex -9.80952 -13.5016 -57.7181
    endloop
  endfacet
  facet normal 0 -0.894435 -0.447198
    outer loop
      vertex 9.80952 -13.5016 -57.7181
      vertex -8.98058 -12.3607 -60
      vertex 8.98058 -12.3607 -60
    endloop
  endfacet
  facet normal 0 0.894435 0.447198
    outer loop
      vertex 9.80952 13.5016 -22.2819
      vertex -8.98058 12.3607 -20
      vertex 8.98058 12.3607 -20
    endloop
  endfacet
  facet normal 0 0.894435 0.447198
    outer loop
      vertex 9.80952 13.5016 -22.2819
      vertex -9.80952 13.5016 -22.2819
      vertex -8.98058 12.3607 -20
    endloop
  endfacet
  facet normal -1.80904e-06 0.894426 0.447216
    outer loop
      vertex 5.68159 22.8753 -41.0292
      vertex 9.80952 13.5016 -22.2819
      vertex 14.5308 20 -35.2786
    endloop
  endfacet
  facet normal 0 0.894426 0.447216
    outer loop
      vertex 9.80952 13.5016 -22.2819
      vertex 5.68159 22.8753 -41.0292
      vertex -9.80952 13.5016 -22.2819
    endloop
  endfacet
  facet normal -0 0.894426 0.447216
    outer loop
      vertex -5.68159 22.8753 -41.0292
      vertex -9.80952 13.5016 -22.2819
      vertex 5.68159 22.8753 -41.0292
    endloop
  endfacet
  facet normal 1.80904e-06 0.894426 0.447216
    outer loop
      vertex -9.80952 13.5016 -22.2819
      vertex -5.68159 22.8753 -41.0292
      vertex -14.5308 20 -35.2786
    endloop
  endfacet
  facet normal -0 0.894437 0.447194
    outer loop
      vertex -5.68159 22.8753 -41.0292
      vertex 5.68159 22.8753 -41.0292
      vertex 0 24.7213 -44.7214
    endloop
  endfacet
  facet normal 0.850649 -0.276399 -0.447213
    outer loop
      vertex 23.5114 1.66532 -41.0292
      vertex 15.8721 5.15715 -57.7181
      vertex 23.5114 7.6393 -44.7214
    endloop
  endfacet
  facet normal 0.850651 -0.276393 -0.447213
    outer loop
      vertex 9.80952 -13.5016 -57.7181
      vertex 15.8721 5.15715 -57.7181
      vertex 23.5114 1.66532 -41.0292
    endloop
  endfacet
  facet normal 0.850655 -0.276394 -0.447206
    outer loop
      vertex 8.98058 -12.3607 -60
      vertex 15.8721 5.15715 -57.7181
      vertex 9.80952 -13.5016 -57.7181
    endloop
  endfacet
  facet normal 0.85066 -0.276397 -0.447195
    outer loop
      vertex 15.8721 5.15715 -57.7181
      vertex 8.98058 -12.3607 -60
      vertex 14.5309 4.72136 -60
    endloop
  endfacet
  facet normal 0.850652 -0.276396 -0.44721
    outer loop
      vertex 14.5308 -20 -44.7214
      vertex 23.5114 -1.66532 -38.9708
      vertex 23.5114 -7.6393 -35.2786
    endloop
  endfacet
  facet normal 0.850651 -0.276388 -0.447217
    outer loop
      vertex 23.5114 -1.66532 -38.9708
      vertex 9.80952 -13.5016 -57.7181
      vertex 23.5114 1.66532 -41.0292
    endloop
  endfacet
  facet normal 0.850651 -0.276395 -0.447212
    outer loop
      vertex 23.5114 -1.66532 -38.9708
      vertex 14.5308 -20 -44.7214
      vertex 9.80952 -13.5016 -57.7181
    endloop
  endfacet
  facet normal -0.850651 0.276393 0.447213
    outer loop
      vertex -15.8721 -5.15715 -22.2819
      vertex -9.80952 13.5016 -22.2819
      vertex -23.5114 -1.66532 -38.9708
    endloop
  endfacet
  facet normal -0.850655 0.276394 0.447206
    outer loop
      vertex -9.80952 13.5016 -22.2819
      vertex -15.8721 -5.15715 -22.2819
      vertex -8.98058 12.3607 -20
    endloop
  endfacet
  facet normal -0.85066 0.276397 0.447195
    outer loop
      vertex -8.98058 12.3607 -20
      vertex -15.8721 -5.15715 -22.2819
      vertex -14.5309 -4.72136 -20
    endloop
  endfacet
  facet normal -0.850649 0.276399 0.447213
    outer loop
      vertex -15.8721 -5.15715 -22.2819
      vertex -23.5114 -1.66532 -38.9708
      vertex -23.5114 -7.6393 -35.2786
    endloop
  endfacet
  facet normal -0.850652 0.276396 0.44721
    outer loop
      vertex -23.5114 1.66532 -41.0292
      vertex -14.5308 20 -35.2786
      vertex -23.5114 7.6393 -44.7214
    endloop
  endfacet
  facet normal -0.850651 0.276395 0.447212
    outer loop
      vertex -14.5308 20 -35.2786
      vertex -23.5114 1.66532 -41.0292
      vertex -9.80952 13.5016 -22.2819
    endloop
  endfacet
  facet normal -0.850651 0.276388 0.447217
    outer loop
      vertex -9.80952 13.5016 -22.2819
      vertex -23.5114 1.66532 -41.0292
      vertex -23.5114 -1.66532 -38.9708
    endloop
  endfacet
  facet normal 0.52573 0.723607 -0.447214
    outer loop
      vertex 15.8721 5.15715 -57.7181
      vertex 0 24.7213 -44.7214
      vertex 5.68159 22.8753 -41.0292
    endloop
  endfacet
  facet normal 0.525734 0.723615 -0.447197
    outer loop
      vertex 0 15.2786 -60
      vertex 15.8721 5.15715 -57.7181
      vertex 14.5309 4.72136 -60
    endloop
  endfacet
  facet normal 0.525731 0.723607 -0.447214
    outer loop
      vertex 15.8721 5.15715 -57.7181
      vertex 0 15.2786 -60
      vertex 0 24.7213 -44.7214
    endloop
  endfacet
  facet normal 0.525732 0.723608 -0.44721
    outer loop
      vertex 23.5114 7.6393 -44.7214
      vertex 5.68159 22.8753 -41.0292
      vertex 14.5308 20 -35.2786
    endloop
  endfacet
  facet normal 0.52573 0.723607 -0.447214
    outer loop
      vertex 5.68159 22.8753 -41.0292
      vertex 23.5114 7.6393 -44.7214
      vertex 15.8721 5.15715 -57.7181
    endloop
  endfacet
  facet normal -0.525734 -0.723615 0.447197
    outer loop
      vertex -15.8721 -5.15715 -22.2819
      vertex 0 -15.2786 -20
      vertex -14.5309 -4.72136 -20
    endloop
  endfacet
  facet normal -0.525731 -0.723607 0.447214
    outer loop
      vertex -15.8721 -5.15715 -22.2819
      vertex 0 -24.7213 -35.2786
      vertex 0 -15.2786 -20
    endloop
  endfacet
  facet normal -0.52573 -0.723607 0.447214
    outer loop
      vertex 0 -24.7213 -35.2786
      vertex -15.8721 -5.15715 -22.2819
      vertex -5.68159 -22.8753 -38.9708
    endloop
  endfacet
  facet normal -0.52573 -0.723607 0.447214
    outer loop
      vertex -23.5114 -7.6393 -35.2786
      vertex -5.68159 -22.8753 -38.9708
      vertex -15.8721 -5.15715 -22.2819
    endloop
  endfacet
  facet normal -0.525732 -0.723608 0.44721
    outer loop
      vertex -5.68159 -22.8753 -38.9708
      vertex -23.5114 -7.6393 -35.2786
      vertex -14.5308 -20 -44.7214
    endloop
  endfacet
  facet normal -0.52573 0.723607 -0.447214
    outer loop
      vertex 0 24.7213 -44.7214
      vertex -15.8721 5.15715 -57.7181
      vertex -5.68159 22.8753 -41.0292
    endloop
  endfacet
  facet normal -0.525731 0.723607 -0.447214
    outer loop
      vertex 0 15.2786 -60
      vertex -15.8721 5.15715 -57.7181
      vertex 0 24.7213 -44.7214
    endloop
  endfacet
  facet normal -0.525734 0.723615 -0.447197
    outer loop
      vertex -15.8721 5.15715 -57.7181
      vertex 0 15.2786 -60
      vertex -14.5309 4.72136 -60
    endloop
  endfacet
  facet normal -0.525732 0.723608 -0.44721
    outer loop
      vertex -5.68159 22.8753 -41.0292
      vertex -23.5114 7.6393 -44.7214
      vertex -14.5308 20 -35.2786
    endloop
  endfacet
  facet normal -0.52573 0.723607 -0.447214
    outer loop
      vertex -23.5114 7.6393 -44.7214
      vertex -5.68159 22.8753 -41.0292
      vertex -15.8721 5.15715 -57.7181
    endloop
  endfacet
  facet normal 0.525734 -0.723615 0.447197
    outer loop
      vertex 0 -15.2786 -20
      vertex 15.8721 -5.15715 -22.2819
      vertex 14.5309 -4.72136 -20
    endloop
  endfacet
  facet normal 0.525731 -0.723607 0.447214
    outer loop
      vertex 0 -24.7213 -35.2786
      vertex 15.8721 -5.15715 -22.2819
      vertex 0 -15.2786 -20
    endloop
  endfacet
  facet normal 0.52573 -0.723607 0.447214
    outer loop
      vertex 15.8721 -5.15715 -22.2819
      vertex 0 -24.7213 -35.2786
      vertex 5.68159 -22.8753 -38.9708
    endloop
  endfacet
  facet normal 0.52573 -0.723607 0.447214
    outer loop
      vertex 5.68159 -22.8753 -38.9708
      vertex 23.5114 -7.6393 -35.2786
      vertex 15.8721 -5.15715 -22.2819
    endloop
  endfacet
  facet normal 0.525732 -0.723608 0.44721
    outer loop
      vertex 23.5114 -7.6393 -35.2786
      vertex 5.68159 -22.8753 -38.9708
      vertex 14.5308 -20 -44.7214
    endloop
  endfacet
  facet normal -0.85066 -0.276397 -0.447195
    outer loop
      vertex -8.98058 -12.3607 -60
      vertex -15.8721 5.15715 -57.7181
      vertex -14.5309 4.72136 -60
    endloop
  endfacet
  facet normal -0.850649 -0.276399 -0.447213
    outer loop
      vertex -15.8721 5.15715 -57.7181
      vertex -23.5114 1.66532 -41.0292
      vertex -23.5114 7.6393 -44.7214
    endloop
  endfacet
  facet normal -0.850655 -0.276394 -0.447206
    outer loop
      vertex -15.8721 5.15715 -57.7181
      vertex -8.98058 -12.3607 -60
      vertex -9.80952 -13.5016 -57.7181
    endloop
  endfacet
  facet normal -0.850651 -0.276393 -0.447213
    outer loop
      vertex -15.8721 5.15715 -57.7181
      vertex -9.80952 -13.5016 -57.7181
      vertex -23.5114 1.66532 -41.0292
    endloop
  endfacet
  facet normal -0.850651 -0.276388 -0.447217
    outer loop
      vertex -9.80952 -13.5016 -57.7181
      vertex -23.5114 -1.66532 -38.9708
      vertex -23.5114 1.66532 -41.0292
    endloop
  endfacet
  facet normal -0.850651 -0.276395 -0.447212
    outer loop
      vertex -14.5308 -20 -44.7214
      vertex -23.5114 -1.66532 -38.9708
      vertex -9.80952 -13.5016 -57.7181
    endloop
  endfacet
  facet normal -0.850652 -0.276396 -0.44721
    outer loop
      vertex -23.5114 -1.66532 -38.9708
      vertex -14.5308 -20 -44.7214
      vertex -23.5114 -7.6393 -35.2786
    endloop
  endfacet
  facet normal 0.850655 0.276394 0.447206
    outer loop
      vertex 15.8721 -5.15715 -22.2819
      vertex 9.80952 13.5016 -22.2819
      vertex 8.98058 12.3607 -20
    endloop
  endfacet
  facet normal 0.85066 0.276397 0.447195
    outer loop
      vertex 15.8721 -5.15715 -22.2819
      vertex 8.98058 12.3607 -20
      vertex 14.5309 -4.72136 -20
    endloop
  endfacet
  facet normal 0.850651 0.276393 0.447213
    outer loop
      vertex 9.80952 13.5016 -22.2819
      vertex 15.8721 -5.15715 -22.2819
      vertex 23.5114 -1.66532 -38.9708
    endloop
  endfacet
  facet normal 0.850649 0.276399 0.447213
    outer loop
      vertex 23.5114 -1.66532 -38.9708
      vertex 15.8721 -5.15715 -22.2819
      vertex 23.5114 -7.6393 -35.2786
    endloop
  endfacet
  facet normal 0.850651 0.276395 0.447212
    outer loop
      vertex 23.5114 1.66532 -41.0292
      vertex 14.5308 20 -35.2786
      vertex 9.80952 13.5016 -22.2819
    endloop
  endfacet
  facet normal 0.850652 0.276396 0.44721
    outer loop
      vertex 14.5308 20 -35.2786
      vertex 23.5114 1.66532 -41.0292
      vertex 23.5114 7.6393 -44.7214
    endloop
  endfacet
  facet normal 0.850651 0.276388 0.447217
    outer loop
      vertex 23.5114 1.66532 -41.0292
      vertex 9.80952 13.5016 -22.2819
      vertex 23.5114 -1.66532 -38.9708
    endloop
  endfacet
  facet normal 0 0 1
    outer loop
      vertex 8.98058 12.3607 -20
      vertex 0 -15.2786 -20
      vertex 14.5309 -4.72136 -20
    endloop
  endfacet
  facet normal -0 0 1
    outer loop
      vertex -8.98058 12.3607 -20
      vertex 0 -15.2786 -20
      vertex 8.98058 12.3607 -20
    endloop
  endfacet
  facet normal 0 0 1
    outer loop
      vertex 0 -15.2786 -20
      vertex -8.98058 12.3607 -20
      vertex -14.5309 -4.72136 -20
    endloop
  endfacet
  facet normal 0 0 -1
    outer loop
      vertex 8.98058 -12.3607 -60
      vertex 0 15.2786 -60
      vertex 14.5309 4.72136 -60
    endloop
  endfacet
  facet normal 0 0 -1
    outer loop
      vertex -8.98058 -12.3607 -60
      vertex 0 15.2786 -60
      vertex 8.98058 -12.3607 -60
    endloop
  endfacet
  facet normal 0 0 -1
    outer loop
      vertex 0 15.2786 -60
      vertex -8.98058 -12.3607 -60
      vertex -14.5309 4.72136 -60
    endloop
  endfacet
endsolid OpenSCAD_Model
